<svg width="251" height="251" viewBox="0 0 251 251" fill="none" xmlns="http://www.w3.org/2000/svg">
<path d="M38.5062 55V61.5938H44.975C46.5167 61.5938 47.6104 61.8958 48.2562 62.5C48.9229 63.0833 49.2562 63.8542 49.2562 64.8125C49.2562 65.75 48.9229 66.5208 48.2562 67.125C47.6104 67.7083 46.5167 68 44.975 68H31.1C29.5583 68 28.4542 67.7083 27.7875 67.125C27.1417 66.5208 26.8187 65.7396 26.8187 64.7812C26.8187 63.8438 27.1521 63.0833 27.8187 62.5C28.4854 61.8958 29.5792 61.5938 31.1 61.5938H32.1V36.5312H31.1C29.5583 36.5312 28.4542 36.2396 27.7875 35.6562C27.1417 35.0521 26.8187 34.2708 26.8187 33.3125C26.8187 32.3542 27.1417 31.5833 27.7875 31C28.4542 30.3958 29.5583 30.0938 31.1 30.0938L45.85 30.125C50.1833 30.125 53.6104 31.3125 56.1312 33.6875C58.6729 36.0417 59.9437 38.9167 59.9437 42.3125C59.9437 44.1875 59.5167 45.9583 58.6625 47.625C58.0167 48.875 56.9333 50.1146 55.4125 51.3438C53.9125 52.5521 52.3708 53.4688 50.7875 54.0938C49.225 54.6979 47.1521 55 44.5687 55H38.5062ZM38.5062 48.5938H44.4437C47.2354 48.5938 49.4437 47.9688 51.0687 46.7188C52.7146 45.4479 53.5375 43.9271 53.5375 42.1562C53.5375 40.6562 52.8708 39.3438 51.5375 38.2188C50.225 37.0938 48.3396 36.5312 45.8812 36.5312H38.5062V48.5938ZM77.2687 52.1875V61.5938H93.6125V58.125C93.6125 56.5833 93.9042 55.4896 94.4875 54.8438C95.0917 54.1771 95.8729 53.8438 96.8312 53.8438C97.7687 53.8438 98.5292 54.1771 99.1125 54.8438C99.7167 55.4896 100.019 56.5833 100.019 58.125V68H69.8625C68.3208 68 67.2167 67.7083 66.55 67.125C65.9042 66.5208 65.5812 65.7396 65.5812 64.7812C65.5812 63.8438 65.9146 63.0833 66.5812 62.5C67.2479 61.8958 68.3417 61.5938 69.8625 61.5938H70.8625V36.5312H69.8625C68.3208 36.5312 67.2167 36.2396 66.55 35.6562C65.9042 35.0521 65.5812 34.2708 65.5812 33.3125C65.5812 32.3542 65.9042 31.5833 66.55 31C67.2167 30.3958 68.3208 30.0938 69.8625 30.0938L98.6125 30.125V39.875C98.6125 41.3958 98.3208 42.4896 97.7375 43.1562C97.1542 43.8021 96.3833 44.125 95.425 44.125C94.4667 44.125 93.6854 43.8021 93.0812 43.1562C92.4979 42.5104 92.2062 41.4167 92.2062 39.875V36.5312H77.2687V45.7812H82.8937C82.8937 44.1146 83.05 43.0417 83.3625 42.5625C84.0083 41.5417 84.925 41.0312 86.1125 41.0312C87.05 41.0312 87.8104 41.3646 88.3937 42.0312C88.9979 42.6771 89.3 43.7708 89.3 45.3125V52.6875C89.3 54.0833 89.1333 55.0208 88.8 55.5C88.1333 56.4792 87.2375 56.9688 86.1125 56.9688C84.925 56.9688 84.0083 56.4583 83.3625 55.4375C83.05 54.9583 82.8937 53.875 82.8937 52.1875H77.2687ZM111.156 61.5938V36.5312C109.802 36.5104 108.802 36.2083 108.156 35.625C107.51 35.0208 107.188 34.25 107.188 33.3125C107.188 32.3542 107.51 31.5833 108.156 31C108.823 30.3958 109.927 30.0938 111.469 30.0938L124.875 30.125C126.958 30.125 128.99 30.5104 130.969 31.2812C132.969 32.0521 134.573 33.0312 135.781 34.2188C136.698 35.1146 137.646 36.3438 138.625 37.9062C139.625 39.4688 140.375 41.0208 140.875 42.5625C141.375 44.1042 141.625 45.9896 141.625 48.2188V51.2812C141.625 53.9896 141.167 56.3958 140.25 58.5C139.333 60.5833 138.125 62.2917 136.625 63.625C135.146 64.9375 133.75 65.9062 132.438 66.5312C130.354 67.5104 127.656 68 124.344 68H111.469C109.927 68 108.823 67.7083 108.156 67.125C107.51 66.5208 107.188 65.7396 107.188 64.7812C107.188 63.8438 107.51 63.0729 108.156 62.4688C108.823 61.8646 109.823 61.5729 111.156 61.5938ZM117.562 61.5938H124.375C126.917 61.5938 128.833 61.2292 130.125 60.5C131.812 59.5417 133.083 58.3229 133.938 56.8438C134.792 55.3646 135.219 53.4479 135.219 51.0938V48.0625C135.219 46.0417 134.833 44.2708 134.062 42.75C132.854 40.375 131.49 38.75 129.969 37.875C128.469 36.9792 126.583 36.5312 124.312 36.5312H117.562V61.5938ZM160.512 53.5312V61.5938H162.825C164.367 61.5938 165.46 61.8958 166.106 62.5C166.773 63.0833 167.106 63.8542 167.106 64.8125C167.106 65.75 166.773 66.5208 166.106 67.125C165.46 67.7083 164.367 68 162.825 68H153.106C151.565 68 150.46 67.7083 149.794 67.125C149.148 66.5208 148.825 65.7396 148.825 64.7812C148.825 63.8438 149.158 63.0833 149.825 62.5C150.492 61.8958 151.585 61.5938 153.106 61.5938H154.106V36.5312H153.106C151.565 36.5312 150.46 36.2396 149.794 35.6562C149.148 35.0521 148.825 34.2708 148.825 33.3125C148.825 32.3542 149.148 31.5833 149.794 31C150.46 30.3958 151.565 30.0938 153.106 30.0938L167.606 30.125C172.127 30.125 175.627 31.25 178.106 33.5C180.606 35.7292 181.856 38.4479 181.856 41.6562C181.856 43.6562 181.273 45.4792 180.106 47.125C178.94 48.75 177.179 50.1979 174.825 51.4688C176.179 52.6562 177.627 54.1771 179.169 56.0312C180.127 57.2188 181.419 59.0729 183.044 61.5938C184.669 61.5938 185.742 61.7604 186.262 62.0938C187.2 62.7396 187.669 63.6458 187.669 64.8125C187.669 65.75 187.346 66.5208 186.7 67.125C186.054 67.7083 184.96 68 183.419 68H179.762C174.575 59.9792 170.273 55.1562 166.856 53.5312H160.512ZM160.512 47.125H165.512C167.367 47.125 169.023 46.8438 170.481 46.2812C172.44 45.5312 173.752 44.7396 174.419 43.9062C175.106 43.0729 175.45 42.25 175.45 41.4375C175.45 40.2292 174.804 39.1146 173.512 38.0938C172.221 37.0521 170.335 36.5312 167.856 36.5312H160.512V47.125ZM226.744 49.0625C226.744 54.75 224.931 59.4896 221.306 63.2812C217.702 67.0521 213.525 68.9375 208.775 68.9375C204.504 68.9375 200.65 67.3646 197.212 64.2188C192.962 60.3229 190.837 55.2708 190.837 49.0625C190.837 42.8542 192.962 37.7917 197.212 33.875C200.65 30.7292 204.504 29.1562 208.775 29.1562C213.525 29.1562 217.702 31.0521 221.306 34.8438C224.931 38.6146 226.744 43.3542 226.744 49.0625ZM220.337 49.0625C220.337 45.1667 219.16 41.9479 216.806 39.4062C214.452 36.8438 211.775 35.5625 208.775 35.5625C205.796 35.5625 203.129 36.8438 200.775 39.4062C198.421 41.9688 197.244 45.1875 197.244 49.0625C197.244 52.9375 198.421 56.1562 200.775 58.7188C203.129 61.2604 205.796 62.5312 208.775 62.5312C211.775 62.5312 214.452 61.2604 216.806 58.7188C219.16 56.1771 220.337 52.9583 220.337 49.0625ZM34.1937 117.219V136.594H36.5062C38.0479 136.594 39.1417 136.896 39.7875 137.5C40.4542 138.083 40.7875 138.854 40.7875 139.812C40.7875 140.75 40.4542 141.521 39.7875 142.125C39.1417 142.708 38.0479 143 36.5062 143H28.1C26.5583 143 25.4542 142.708 24.7875 142.125C24.1417 141.521 23.8187 140.74 23.8187 139.781C23.8187 138.865 24.1417 138.104 24.7875 137.5C25.4333 136.896 26.4333 136.594 27.7875 136.594V111.531H26.7875C25.2458 111.531 24.1417 111.24 23.475 110.656C22.8292 110.052 22.5062 109.271 22.5062 108.312C22.5062 107.354 22.8292 106.583 23.475 106C24.1417 105.396 25.2458 105.094 26.7875 105.094L34.1937 105.125L50.5687 130.812V111.531H48.2562C46.7146 111.531 45.6104 111.24 44.9437 110.656C44.2979 110.052 43.975 109.271 43.975 108.312C43.975 107.354 44.2979 106.583 44.9437 106C45.6104 105.396 46.7146 105.094 48.2562 105.094L56.6625 105.125C58.2042 105.125 59.2979 105.417 59.9437 106C60.6104 106.583 60.9437 107.354 60.9437 108.312C60.9437 109.25 60.6208 110.021 59.975 110.625C59.3292 111.229 58.3396 111.531 57.0062 111.531V143H50.6625L34.1937 117.219ZM98.4875 111.531V129.688C98.4875 133.646 97.0604 137.01 94.2062 139.781C91.3729 142.552 87.9562 143.938 83.9562 143.938C81.9771 143.938 80.1125 143.594 78.3625 142.906C76.6333 142.198 75.0708 141.167 73.675 139.812C72.3 138.458 71.2271 137.052 70.4562 135.594C69.6854 134.115 69.3 132.146 69.3 129.688V111.531C67.9458 111.531 66.9458 111.229 66.3 110.625C65.6542 110.021 65.3312 109.25 65.3312 108.312C65.3312 107.354 65.6542 106.583 66.3 106C66.9458 105.417 68.05 105.125 69.6125 105.125L78.0187 105.094C79.5604 105.094 80.6542 105.396 81.3 106C81.9667 106.583 82.3 107.354 82.3 108.312C82.3 109.271 81.9667 110.052 81.3 110.656C80.6542 111.24 79.5604 111.531 78.0187 111.531H75.7062V130.25C75.7062 132.167 76.4979 133.865 78.0812 135.344C79.6854 136.802 81.6125 137.531 83.8625 137.531C85.3625 137.531 86.7687 137.177 88.0812 136.469C89.3937 135.76 90.4667 134.729 91.3 133.375C91.8208 132.521 92.0812 131.479 92.0812 130.25V111.531H89.7687C88.2271 111.531 87.1229 111.24 86.4562 110.656C85.8104 110.052 85.4875 109.271 85.4875 108.312C85.4875 107.354 85.8104 106.583 86.4562 106C87.1229 105.396 88.2271 105.094 89.7687 105.094L98.175 105.125C99.7167 105.125 100.81 105.417 101.456 106C102.123 106.583 102.456 107.354 102.456 108.312C102.456 109.25 102.133 110.021 101.487 110.625C100.842 111.229 99.8417 111.531 98.4875 111.531ZM89.3937 94.4375L82.3625 100.156C81.6542 100.719 81.0604 101 80.5812 101C79.9979 101 79.4979 100.802 79.0812 100.406C78.6854 100.01 78.4875 99.5208 78.4875 98.9375C78.4875 98.2708 78.9042 97.6042 79.7375 96.9375L86.8 91.2188C87.5083 90.6562 88.1021 90.375 88.5812 90.375C89.1646 90.375 89.6542 90.5729 90.05 90.9688C90.4667 91.3646 90.675 91.8438 90.675 92.4062C90.675 93.0938 90.2479 93.7708 89.3937 94.4375ZM117.469 117.219V136.594H119.781C121.323 136.594 122.417 136.896 123.062 137.5C123.729 138.083 124.062 138.854 124.062 139.812C124.062 140.75 123.729 141.521 123.062 142.125C122.417 142.708 121.323 143 119.781 143H111.375C109.833 143 108.729 142.708 108.062 142.125C107.417 141.521 107.094 140.74 107.094 139.781C107.094 138.865 107.417 138.104 108.062 137.5C108.708 136.896 109.708 136.594 111.062 136.594V111.531H110.062C108.521 111.531 107.417 111.24 106.75 110.656C106.104 110.052 105.781 109.271 105.781 108.312C105.781 107.354 106.104 106.583 106.75 106C107.417 105.396 108.521 105.094 110.062 105.094L117.469 105.125L133.844 130.812V111.531H131.531C129.99 111.531 128.885 111.24 128.219 110.656C127.573 110.052 127.25 109.271 127.25 108.312C127.25 107.354 127.573 106.583 128.219 106C128.885 105.396 129.99 105.094 131.531 105.094L139.938 105.125C141.479 105.125 142.573 105.417 143.219 106C143.885 106.583 144.219 107.354 144.219 108.312C144.219 109.25 143.896 110.021 143.25 110.625C142.604 111.229 141.615 111.531 140.281 111.531V143H133.938L117.469 117.219ZM134.188 94.8438C134.771 94.8438 135.271 95.0521 135.688 95.4688C136.104 95.8854 136.312 96.3854 136.312 96.9688C136.312 97.6979 135.552 98.6771 134.031 99.9062C132.531 101.115 131.031 101.719 129.531 101.719C128.802 101.719 128.073 101.573 127.344 101.281C126.635 100.969 125.25 100.094 123.188 98.6562C122.333 98.0729 121.75 97.7812 121.438 97.7812C120.979 97.7812 120.083 98.3333 118.75 99.4375C117.917 100.146 117.229 100.5 116.688 100.5C116.146 100.5 115.667 100.302 115.25 99.9062C114.854 99.4896 114.656 98.9896 114.656 98.4062C114.656 97.6354 115.292 96.7396 116.562 95.7188C118.271 94.3229 119.854 93.625 121.312 93.625C121.979 93.625 122.604 93.7396 123.188 93.9688C124.083 94.3438 125.26 95.0417 126.719 96.0625C128.177 97.0625 129.135 97.5625 129.594 97.5625C130.135 97.5625 130.927 97.0938 131.969 96.1562C132.635 95.5521 133.094 95.1875 133.344 95.0625C133.615 94.9167 133.896 94.8438 134.188 94.8438ZM160.544 127.188V136.594H176.887V133.125C176.887 131.583 177.179 130.49 177.762 129.844C178.367 129.177 179.148 128.844 180.106 128.844C181.044 128.844 181.804 129.177 182.387 129.844C182.992 130.49 183.294 131.583 183.294 133.125V143H153.137C151.596 143 150.492 142.708 149.825 142.125C149.179 141.521 148.856 140.74 148.856 139.781C148.856 138.844 149.19 138.083 149.856 137.5C150.523 136.896 151.617 136.594 153.137 136.594H154.137V111.531H153.137C151.596 111.531 150.492 111.24 149.825 110.656C149.179 110.052 148.856 109.271 148.856 108.312C148.856 107.354 149.179 106.583 149.825 106C150.492 105.396 151.596 105.094 153.137 105.094L181.887 105.125V114.875C181.887 116.396 181.596 117.49 181.012 118.156C180.429 118.802 179.658 119.125 178.7 119.125C177.742 119.125 176.96 118.802 176.356 118.156C175.773 117.51 175.481 116.417 175.481 114.875V111.531H160.544V120.781H166.169C166.169 119.115 166.325 118.042 166.637 117.562C167.283 116.542 168.2 116.031 169.387 116.031C170.325 116.031 171.085 116.365 171.669 117.031C172.273 117.677 172.575 118.771 172.575 120.312V127.688C172.575 129.083 172.408 130.021 172.075 130.5C171.408 131.479 170.512 131.969 169.387 131.969C168.2 131.969 167.283 131.458 166.637 130.438C166.325 129.958 166.169 128.875 166.169 127.188H160.544ZM202.462 136.594H216.994V131.844C216.994 130.302 217.285 129.208 217.869 128.562C218.473 127.896 219.254 127.562 220.212 127.562C221.171 127.562 221.942 127.896 222.525 128.562C223.129 129.208 223.431 130.302 223.431 131.844L223.4 143H194.275V136.594L213.806 111.531H201.994V116.125C201.994 117.667 201.702 118.771 201.119 119.438C200.535 120.083 199.765 120.406 198.806 120.406C197.848 120.406 197.067 120.083 196.462 119.438C195.879 118.771 195.587 117.667 195.587 116.125V105.094L222.087 105.125V111.375L202.462 136.594ZM35.6 203.531V211.594H37.9125C39.4542 211.594 40.5479 211.896 41.1937 212.5C41.8604 213.083 42.1937 213.854 42.1937 214.812C42.1937 215.75 41.8604 216.521 41.1937 217.125C40.5479 217.708 39.4542 218 37.9125 218H28.1937C26.6521 218 25.5479 217.708 24.8812 217.125C24.2354 216.521 23.9125 215.74 23.9125 214.781C23.9125 213.844 24.2458 213.083 24.9125 212.5C25.5792 211.896 26.6729 211.594 28.1937 211.594H29.1937V186.531H28.1937C26.6521 186.531 25.5479 186.24 24.8812 185.656C24.2354 185.052 23.9125 184.271 23.9125 183.312C23.9125 182.354 24.2354 181.583 24.8812 181C25.5479 180.396 26.6521 180.094 28.1937 180.094L42.6937 180.125C47.2146 180.125 50.7146 181.25 53.1937 183.5C55.6937 185.729 56.9437 188.448 56.9437 191.656C56.9437 193.656 56.3604 195.479 55.1937 197.125C54.0271 198.75 52.2667 200.198 49.9125 201.469C51.2667 202.656 52.7146 204.177 54.2562 206.031C55.2146 207.219 56.5062 209.073 58.1312 211.594C59.7562 211.594 60.8292 211.76 61.35 212.094C62.2875 212.74 62.7562 213.646 62.7562 214.812C62.7562 215.75 62.4333 216.521 61.7875 217.125C61.1417 217.708 60.0479 218 58.5062 218H54.85C49.6625 209.979 45.3604 205.156 41.9437 203.531H35.6ZM35.6 197.125H40.6C42.4542 197.125 44.1104 196.844 45.5687 196.281C47.5271 195.531 48.8396 194.74 49.5062 193.906C50.1937 193.073 50.5375 192.25 50.5375 191.438C50.5375 190.229 49.8917 189.115 48.6 188.094C47.3083 187.052 45.4229 186.531 42.9437 186.531H35.6V197.125ZM87.05 186.531V211.594H93.5187C95.0604 211.594 96.1542 211.896 96.8 212.5C97.4667 213.083 97.8 213.854 97.8 214.812C97.8 215.75 97.4667 216.521 96.8 217.125C96.1542 217.708 95.0604 218 93.5187 218H74.175C72.6333 218 71.5292 217.708 70.8625 217.125C70.2167 216.521 69.8937 215.74 69.8937 214.781C69.8937 213.844 70.2167 213.083 70.8625 212.5C71.5292 211.896 72.6333 211.594 74.175 211.594H80.6437V186.531H74.175C72.6333 186.531 71.5292 186.24 70.8625 185.656C70.2167 185.052 69.8937 184.271 69.8937 183.312C69.8937 182.354 70.2167 181.583 70.8625 181C71.5292 180.396 72.6333 180.094 74.175 180.094L93.5187 180.125C95.0604 180.125 96.1542 180.417 96.8 181C97.4667 181.583 97.8 182.354 97.8 183.312C97.8 184.271 97.4667 185.052 96.8 185.656C96.1542 186.24 95.0604 186.531 93.5187 186.531H87.05ZM112.406 211.594V186.531H111.406C109.865 186.531 108.76 186.24 108.094 185.656C107.448 185.052 107.125 184.271 107.125 183.312C107.125 182.354 107.448 181.583 108.094 181C108.76 180.396 109.865 180.094 111.406 180.094H127.469C131.302 180.094 134.385 181.167 136.719 183.312C139.052 185.438 140.219 187.969 140.219 190.906C140.219 192.302 139.948 193.615 139.406 194.844C138.865 196.073 138.042 197.208 136.938 198.25C138.958 199.458 140.469 200.875 141.469 202.5C142.49 204.104 143 205.927 143 207.969C143 209.594 142.635 211.104 141.906 212.5C141.365 213.562 140.698 214.406 139.906 215.031C138.844 215.906 137.542 216.625 136 217.188C134.458 217.729 132.531 218 130.219 218H111.406C109.865 218 108.76 217.708 108.094 217.125C107.448 216.521 107.125 215.74 107.125 214.781C107.125 213.844 107.458 213.083 108.125 212.5C108.792 211.896 109.885 211.594 111.406 211.594H112.406ZM118.812 195.844H125.844C128.365 195.844 130.458 195.208 132.125 193.938C133.25 193.083 133.812 192.021 133.812 190.75C133.812 189.625 133.281 188.646 132.219 187.812C131.156 186.958 129.469 186.531 127.156 186.531H118.812V195.844ZM118.812 211.594H129.875C132.479 211.594 134.312 211.208 135.375 210.438C136.188 209.854 136.594 209.021 136.594 207.938C136.594 206.646 135.792 205.375 134.188 204.125C132.583 202.875 130.281 202.25 127.281 202.25H118.812V211.594ZM185.106 199.062C185.106 204.75 183.294 209.49 179.669 213.281C176.065 217.052 171.887 218.938 167.137 218.938C162.867 218.938 159.012 217.365 155.575 214.219C151.325 210.323 149.2 205.271 149.2 199.062C149.2 192.854 151.325 187.792 155.575 183.875C159.012 180.729 162.867 179.156 167.137 179.156C171.887 179.156 176.065 181.052 179.669 184.844C183.294 188.615 185.106 193.354 185.106 199.062ZM178.7 199.062C178.7 195.167 177.523 191.948 175.169 189.406C172.815 186.844 170.137 185.562 167.137 185.562C164.158 185.562 161.492 186.844 159.137 189.406C156.783 191.969 155.606 195.188 155.606 199.062C155.606 202.938 156.783 206.156 159.137 208.719C161.492 211.26 164.158 212.531 167.137 212.531C170.137 212.531 172.815 211.26 175.169 208.719C177.523 206.177 178.7 202.958 178.7 199.062ZM211.869 186.531V211.594H216.181C217.723 211.594 218.817 211.896 219.462 212.5C220.129 213.083 220.462 213.854 220.462 214.812C220.462 215.75 220.129 216.521 219.462 217.125C218.817 217.708 217.723 218 216.181 218H201.181C199.64 218 198.535 217.708 197.869 217.125C197.223 216.521 196.9 215.74 196.9 214.781C196.9 213.844 197.223 213.083 197.869 212.5C198.535 211.896 199.64 211.594 201.181 211.594H205.462V186.531H198.525V192.594C198.525 194.135 198.223 195.24 197.619 195.906C197.035 196.552 196.265 196.875 195.306 196.875C194.369 196.875 193.598 196.552 192.994 195.906C192.41 195.24 192.119 194.135 192.119 192.594V180.094L225.306 180.125V192.594C225.306 194.135 225.004 195.24 224.4 195.906C223.817 196.552 223.046 196.875 222.087 196.875C221.15 196.875 220.379 196.552 219.775 195.906C219.192 195.24 218.9 194.135 218.9 192.594V186.531H211.869Z" fill="#252525"/>
<rect x="3" y="3" width="245" height="245" rx="6" stroke="#252525" stroke-width="6"/>
</svg>
